
<svg xmlns="http://www.w3.org/2000/svg">
  

      <symbol id="Speed" viewBox="0 0 12 12">
        <path d="M6,0 C2.69165217,0 0,2.6913913 0,6 C0,9.3086087 2.69165217,12 6,12 C9.30834783,12 12,9.3086087 12,6 C12,2.6913913 9.30834783,0 6,0 Z M6.4826087,6.61904348 C6.35086957,6.72078261 6.18573913,6.7826087 6,6.7826087 C5.55652174,6.7826087 5.2173913,6.44347826 5.2173913,6 C5.2173913,5.64756522 5.43313043,5.36426087 5.74330435,5.26147826 L5.74226087,5.25965217 L10.2571304,3.51965217 L6.48417391,6.62191304 L6.4826087,6.61904348 Z"></path>
      </symbol>
    

      <symbol id="Size" viewBox="0 0 10 10">
        <path d="M6.10133706,-0.00219713359 C5.82497305,0.0104979675 5.61208505,0.244870218 5.62478015,0.521234225 C5.63747525,0.797598233 5.8718475,1.01048623 6.14821151,0.997791134 L8.2966238,0.997791134 L0.999834411,8.29458052 L0.999834411,6.14616823 C1.00178764,6.01042757 0.949053756,5.88054634 0.853351879,5.78484447 C0.757649752,5.68914234 0.627768526,5.63640871 0.492027869,5.63836169 C0.215663861,5.64226789 -0.00406006093,5.86980422 -0.000153856764,6.14616823 L-0.00020514155,9.99775158 L3.85136345,9.99768554 C4.03202533,10.0006153 4.19901562,9.90588987 4.28983481,9.7496417 C4.38163073,9.59437002 4.38163073,9.40101279 4.28983481,9.24574136 C4.19901562,9.08949319 4.03202533,8.99476756 3.85136345,8.99769727 L1.70295116,8.99769727 L8.99974055,1.70090788 L8.99974055,3.84932018 C8.99681083,4.02998206 9.09153647,4.19697235 9.24778464,4.28779153 C9.40305607,4.37958746 9.5964133,4.37958746 9.75168498,4.28779153 C9.90793314,4.19697235 10.0026585,4.02998206 9.99972882,3.84932018 L9.99972882,-0.00219713359 L6.14821151,-0.00219713359 C6.13258669,-0.00317362214 6.11696187,-0.00317362214 6.10133706,-0.00219713359 Z"></path>
      </symbol>
    

      <symbol id="Replace" viewBox="0 0 16 15">
        <path d="M7.99886527,0 C3.95082,0 0.665878652,3.28494135 0.665878652,7.33298662 C0.665878652,9.01060097 1.22369758,10.546228 2.15669356,11.780693 L0.430212728,11.2527233 C0.254036515,11.1987918 0.0674973441,11.2978907 0.0135658272,11.4740669 C-0.0403656896,11.6502431 0.0587332162,11.8367823 0.234909429,11.8907138 L3.21393518,12.8008271 L3.62797827,9.73586768 C3.64221833,9.64105603 3.61494666,9.5447034 3.5531287,9.47141924 C3.49131074,9.39813507 3.40093227,9.35501541 3.30507687,9.35307344 C3.13371994,9.34952931 2.98760059,9.47650385 2.96720214,9.64667923 L2.72697913,11.427845 C1.85434533,10.2962242 1.3325138,8.88618185 1.3325138,7.33298662 C1.3325138,3.64473101 4.31060966,0.666635147 7.99886527,0.666635147 L7.99886527,0 Z M8.702608,0.0253894329 L8.60821146,0.68421245 L8.93957613,0.733038274 C9.27056048,0.778369465 8.93930514,0.732944512 9.27028949,0.77860902 L9.36468603,0.119786003 L9.0333217,0.0709601783 L8.702608,0.0253894329 Z M10.0755901,0.291652877 L9.8575014,0.921180412 L10.1719395,1.0285972 C10.4865913,1.13592546 10.1723772,1.02835241 10.487029,1.13601399 L10.7051177,0.506486453 L10.0755901,0.291652877 Z M11.3684976,0.811810583 L11.036482,1.38730421 L11.3242287,1.554614 C11.6155483,1.72227274 11.3242287,1.55491608 11.6158816,1.72257482 L11.9478972,1.14317512 L11.3684976,0.811810583 Z M12.7837954,1.86514618 L12.3697523,4.93010557 C12.3537803,5.04816136 12.4020169,5.16576823 12.4962854,5.23860873 C12.5905538,5.31144924 12.7165262,5.3284524 12.8267327,5.28321097 C12.9369393,5.23796953 13.0146298,5.13735972 13.0305284,5.01929402 L13.2707513,3.23812823 C14.1433851,4.36974906 14.6652167,5.77979139 14.6652167,7.33298662 C14.6652167,11.0212422 11.6871209,13.9993381 7.99886527,13.9993381 L7.99886527,14.6659732 C12.0469105,14.6659732 15.3318519,11.3810319 15.3318519,7.33298662 C15.3318519,5.65537227 14.7740329,4.11974521 13.841037,2.88528025 L15.5675178,3.41324995 C15.743694,3.4671815 15.9302332,3.36808263 15.9841647,3.19190642 C16.0380963,3.0157302 15.9389974,2.829191 15.7628212,2.77525945 L12.7837954,1.86514618 Z M4.35906337,12.929076 L4.02509482,13.5065227 L4.60319249,13.8404916 L4.937812,13.2662998 L4.35906337,12.929076 Z M5.48596342,13.5201941 L5.26527052,14.1484197 L5.89349615,14.3658571 L6.11418872,13.7376318 L5.80040155,13.6289129 L5.48596342,13.5201941 Z M6.70074965,13.8821563 L6.60439987,14.5409792 L6.93511357,14.5911071 L7.26582693,14.6373286 L7.36282768,13.9791567 L7.03146301,13.9290288 L6.70074965,13.8821563 Z"></path>
      </symbol>
    

      <symbol id="Delete" viewBox="0 0 12 16">
        <path d="M4.8,0 C4.27375008,0 3.84,0.43375008 3.84,0.96 L3.84,1.6 L1.34,1.6 C1.3,1.59250016 1.26,1.59250016 1.22,1.6 L0.64,1.6 C0.63,1.6 0.62,1.6 0.61,1.6 C0.43375008,1.60875008 0.29624992,1.75875008 0.305,1.935 C0.31375008,2.11124992 0.46375008,2.24875008 0.64,2.24 L0.99,2.24 L2.14,15.2 C2.18,15.6475002 2.56124992,16 3.01,16 L9.15,16 C9.59875008,16 9.98,15.6475002 10.02,15.2 L11.17,2.24 L11.52,2.24 C11.635,2.24124992 11.7425002,2.18124992 11.8012499,2.08124992 C11.8587501,1.98124992 11.8587501,1.85875008 11.8012499,1.75875008 C11.7425002,1.65875008 11.635,1.59875008 11.52,1.6 L8.32,1.6 L8.32,0.96 C8.32,0.43375008 7.88624992,0 7.36,0 L4.8,0 Z M4.8,0.64 L7.36,0.64 C7.54,0.64 7.68,0.78 7.68,0.96 L7.68,1.6 L4.48,1.6 L4.48,0.96 C4.48,0.78 4.62,0.64 4.8,0.64 Z M1.63,2.24 L10.53,2.24 L9.38,15.15 C9.37,15.2612499 9.25124992,15.36 9.15,15.36 L3.01,15.36 C2.90875008,15.36 2.79,15.2612499 2.78,15.15 L1.63,2.24 Z M4.13,3.19 C4.11624992,3.19250016 4.10250016,3.19624992 4.09,3.2 C3.94124992,3.23375008 3.83624992,3.36750016 3.84,3.52 L3.84,14.08 C3.83875008,14.195 3.89875008,14.3025002 3.99875008,14.3612499 C4.09875008,14.4187501 4.22124992,14.4187501 4.32124992,14.3612499 C4.42124992,14.3025002 4.48124992,14.195 4.48,14.08 L4.48,3.52 C4.48375008,3.42750016 4.44624992,3.33875008 4.38,3.27624992 C4.31250016,3.21250016 4.22124992,3.18124992 4.13,3.19 Z M6.05,3.19 C6.03624992,3.19250016 6.02250016,3.19624992 6.01,3.2 C5.86124992,3.23375008 5.75624992,3.36750016 5.76,3.52 L5.76,14.08 C5.75875008,14.195 5.81875008,14.3025002 5.91875008,14.3612499 C6.01875008,14.4187501 6.14124992,14.4187501 6.24124992,14.3612499 C6.34124992,14.3025002 6.40124992,14.195 6.4,14.08 L6.4,3.52 C6.40375008,3.42750016 6.36624992,3.33875008 6.3,3.27624992 C6.23250016,3.21250016 6.14124992,3.18124992 6.05,3.19 Z M7.97,3.19 C7.95624992,3.19250016 7.94250016,3.19624992 7.93,3.2 C7.78124992,3.23375008 7.67624992,3.36750016 7.68,3.52 L7.68,14.08 C7.67875008,14.195 7.73875008,14.3025002 7.83875008,14.3612499 C7.93875008,14.4187501 8.06124992,14.4187501 8.16124992,14.3612499 C8.26124992,14.3025002 8.32124992,14.195 8.32,14.08 L8.32,3.52 C8.32375008,3.42750016 8.28624992,3.33875008 8.22,3.27624992 C8.15250016,3.21250016 8.06124992,3.18124992 7.97,3.19 Z"></path>
      </symbol>
    

      <symbol id="Search" viewBox="0 0 16 17">
        <path d="M6.33940277,0 C2.84195202,0 0,2.84195202 0,6.33940277 C0,9.83685351 2.84195202,12.6788055 6.33940277,12.6788055 C7.72323398,12.6788055 9.002185,12.2330665 10.0451566,11.4785142 L14.9512017,16.372906 L16,15.3241078 L11.1522214,10.4646759 C12.10488,9.35469793 12.6788055,7.91405672 12.6788055,6.33940277 C12.6788055,2.84195202 9.83685351,0 6.33940277,0 Z M6.33940277,0.74581209 C9.43335761,0.74581209 11.9329934,3.24544792 11.9329934,6.33940277 C11.9329934,9.43335761 9.43335761,11.9329934 6.33940277,11.9329934 C3.24544792,11.9329934 0.74581209,9.43335761 0.74581209,6.33940277 C0.74581209,3.24544792 3.24544792,0.74581209 6.33940277,0.74581209 Z"></path>
      </symbol>
    

      <symbol id="Collection" viewBox="0 0 24 23">
        <path d="M0,0 L0,6 L24,6 L24,0 L0,0 Z M1,7 L1,22.5 L23,22.5 L23,7 L1,7 Z M8.25,8.5 L15.75,8.5 C16.4414065,8.5 17,9.058594 17,9.75 C17,10.4414065 16.4414065,11 15.75,11 L8.25,11 C7.558594,11 7,10.4414065 7,9.75 C7,9.058594 7.558594,8.5 8.25,8.5 Z"></path>
      </symbol>
    

      <symbol id="Photo" viewBox="0 0 48 48">
        <path d="M24,0 C20.433594,0 17.433594,2.359375 16.40625,5.59375 C15.246094,4.984375 13.96875,4.6875 12.6875,4.6875 C10.636719,4.6875 8.589844,5.472656 7.03125,7.03125 C4.5,9.5625 4.011719,13.386719 5.59375,16.40625 C2.359375,17.433594 0,20.433594 0,24 C0,27.570313 2.355469,30.601563 5.59375,31.625 C4.027344,34.640625 4.507813,38.445313 7.03125,40.96875 C9.554688,43.492188 13.359375,43.972656 16.375,42.40625 C17.398438,45.644531 20.429688,48 24,48 C27.570313,48 30.601563,45.644531 31.625,42.40625 C34.640625,43.972656 38.445313,43.492188 40.96875,40.96875 C43.5,38.4375 43.988281,34.613281 42.40625,31.59375 C45.640625,30.566406 48,27.566406 48,24 C48,20.433594 45.640625,17.433594 42.40625,16.40625 C42.410156,16.398438 42.402344,16.382813 42.40625,16.375 C43.972656,13.359375 43.492188,9.554688 40.96875,7.03125 C39.410156,5.472656 37.363281,4.6875 35.3125,4.6875 C34.039063,4.6875 32.777344,4.992188 31.625,5.59375 C31.625,5.589844 31.59375,5.597656 31.59375,5.59375 C30.566406,2.359375 27.566406,0 24,0 Z M24,2 C26.921875,2 29.328125,4.058594 29.875,6.8125 C29.800781,6.882813 29.730469,6.957031 29.65625,7.03125 L25.40625,11.28125 C24.839844,11.847656 24.359375,12.484375 24,13.15625 C23.640625,12.484375 23.160156,11.847656 22.59375,11.28125 L18.34375,7.03125 C18.269531,6.957031 18.199219,6.882813 18.125,6.8125 C18.671875,4.058594 21.078125,2 24,2 Z M12.6875,6.6875 C13.835938,6.6875 15,7 16,7.65625 C15.996094,7.769531 16,7.882813 16,8 L16,14 C16,14.828125 16.140625,15.625 16.375,16.375 C15.625,16.140625 14.828125,16 14,16 L8,16 C7.882813,16 7.769531,15.996094 7.65625,16 C6.113281,13.664063 6.378906,10.496094 8.4375,8.4375 C9.613281,7.261719 11.152344,6.6875 12.6875,6.6875 Z M35.3125,6.6875 C36.847656,6.6875 38.386719,7.261719 39.5625,8.4375 C41.621094,10.496094 41.886719,13.664063 40.34375,16 C40.230469,15.996094 40.117188,16 40,16 L34,16 C33.171875,16 32.375,16.140625 31.625,16.375 C31.859375,15.625 32,14.828125 32,14 L32,8 C32,7.882813 32.003906,7.769531 32,7.65625 C33,7 34.164063,6.6875 35.3125,6.6875 Z M18,9.5 L21.1875,12.6875 C23.097656,14.597656 23.445313,17.457031 22.25,19.71875 C19.789063,18.972656 18,16.710938 18,14 L18,9.5 Z M30,9.5 L30,14 C30,16.710938 28.210938,18.972656 25.75,19.71875 C24.554688,17.449219 24.902344,14.597656 26.8125,12.6875 L30,9.5 Z M9.5,18 L14,18 C16.710938,18 18.972656,19.789063 19.71875,22.25 C17.449219,23.445313 14.597656,23.097656 12.6875,21.1875 L9.5,18 Z M34,18 L38.5,18 L35.3125,21.1875 C33.402344,23.097656 30.542969,23.445313 28.28125,22.25 C29.027344,19.789063 31.289063,18 34,18 Z M6.78125,18.125 C6.792969,18.121094 6.800781,18.128906 6.8125,18.125 C6.882813,18.199219 6.957031,18.269531 7.03125,18.34375 L11.28125,22.59375 C11.847656,23.160156 12.484375,23.640625 13.15625,24 C12.484375,24.363281 11.847656,24.839844 11.28125,25.40625 L7.03125,29.65625 C6.957031,29.730469 6.882813,29.800781 6.8125,29.875 C4.058594,29.328125 2,26.921875 2,24 C2,21.089844 4.042969,18.683594 6.78125,18.125 Z M41.1875,18.125 C43.941406,18.671875 46,21.078125 46,24 C46,26.921875 43.941406,29.328125 41.1875,29.875 C41.117188,29.800781 41.042969,29.730469 40.96875,29.65625 L36.71875,25.40625 C36.152344,24.839844 35.515625,24.363281 34.84375,24 C35.515625,23.640625 36.152344,23.160156 36.71875,22.59375 L40.96875,18.34375 C41.042969,18.269531 41.117188,18.199219 41.1875,18.125 Z M23.1875,21.96875 C23.457031,21.996094 23.722656,22 24,22 C24.277344,22 24.542969,21.996094 24.8125,21.96875 C24.992188,22.191406 25.199219,22.386719 25.40625,22.59375 C25.613281,22.800781 25.808594,23.007813 26.03125,23.1875 C26.003906,23.457031 26,23.722656 26,24 C26,24.277344 26.003906,24.542969 26.03125,24.8125 C25.808594,24.992188 25.613281,25.199219 25.40625,25.40625 C25.199219,25.613281 24.992188,25.808594 24.8125,26.03125 C24.542969,26.003906 24.277344,26 24,26 C23.722656,26 23.457031,26.003906 23.1875,26.03125 C23.007813,25.808594 22.800781,25.613281 22.59375,25.40625 C22.386719,25.199219 22.191406,24.992188 21.96875,24.8125 C21.996094,24.542969 22,24.277344 22,24 C22,23.722656 21.996094,23.457031 21.96875,23.1875 C22.191406,23.007813 22.386719,22.800781 22.59375,22.59375 C22.800781,22.386719 23.007813,22.191406 23.1875,21.96875 Z M16.9375,25.0625 C17.894531,25.0625 18.855469,25.292969 19.71875,25.75 C18.972656,28.210938 16.710938,30 14,30 L9.5,30 L12.6875,26.8125 C13.863281,25.636719 15.402344,25.0625 16.9375,25.0625 Z M31.0625,25.0625 C32.597656,25.0625 34.136719,25.636719 35.3125,26.8125 L38.5,30 L34,30 C31.289063,30 29.027344,28.210938 28.28125,25.75 C29.15625,25.292969 30.105469,25.0625 31.0625,25.0625 Z M22.21875,28.28125 C22.226563,28.277344 22.242188,28.285156 22.25,28.28125 C23.445313,30.550781 23.097656,33.402344 21.1875,35.3125 L18,38.5 L18,34 C18,31.296875 19.773438,29.039063 22.21875,28.28125 Z M25.75,28.28125 C28.210938,29.027344 30,31.289063 30,34 L30,38.5 L26.8125,35.3125 C24.902344,33.402344 24.554688,30.542969 25.75,28.28125 Z M16.375,31.625 C16.140625,32.375 16,33.171875 16,34 L16,40 C16,40.117188 15.996094,40.230469 16,40.34375 C13.664063,41.886719 10.496094,41.621094 8.4375,39.5625 C6.378906,37.503906 6.113281,34.335938 7.65625,32 C7.769531,32.003906 7.882813,32 8,32 L14,32 C14.828125,32 15.625,31.859375 16.375,31.625 Z M31.625,31.625 C32.375,31.859375 33.171875,32 34,32 L40,32 C40.117188,32 40.230469,32.003906 40.34375,32 C41.886719,34.335938 41.621094,37.503906 39.5625,39.5625 C37.503906,41.621094 34.335938,41.886719 32,40.34375 C32.003906,40.230469 32,40.117188 32,40 L32,34 C32,33.171875 31.859375,32.375 31.625,31.625 Z M24,34.84375 C24.359375,35.515625 24.839844,36.152344 25.40625,36.71875 L29.65625,40.96875 C29.730469,41.042969 29.800781,41.117188 29.875,41.1875 C29.328125,43.941406 26.921875,46 24,46 C21.078125,46 18.671875,43.941406 18.125,41.1875 C18.199219,41.117188 18.269531,41.042969 18.34375,40.96875 L22.59375,36.71875 C23.160156,36.152344 23.640625,35.515625 24,34.84375 Z"></path>
      </symbol>
    

      <symbol id="Arrow Down" viewBox="0 0 31 17">
        <path d="M8.21833151,-6.51804551 C7.92306672,-6.51804551 7.65903205,-6.33918374 7.54546867,-6.06663163 C7.4347442,-5.7912399 7.50004332,-5.47894097 7.71297484,-5.27168799 L21.7352131,8.75055027 L7.71297484,22.7727885 C7.522756,22.9544899 7.44610054,23.227042 7.51423856,23.4797204 C7.57953769,23.7352383 7.77827396,23.9339739 8.0337912,23.999273 C8.28646953,24.067411 8.55902164,23.9907556 8.74072304,23.8005367 L23.2768354,9.26442437 C23.5607438,8.98051593 23.5607438,8.52058461 23.2768354,8.23667616 L8.74072304,-6.29943619 C8.60444699,-6.44139078 8.41706778,-6.51804551 8.21833151,-6.51804551 Z" transform="translate(15.489767, 8.752850) rotate(-270.000000) translate(-15.489767, -8.752850) "></path>
      </symbol>
    
</svg>
