
<svg xmlns="http://www.w3.org/2000/svg">
  

      <symbol id="Underline" viewBox="0 0 16 16">
        <path d="M2.37209302,0 C2.16715126,0 2,0.167151256 2,0.372093023 L2,8.18604651 C2,11.4680234 4.67151181,14.1395349 7.95348837,14.1395349 C11.2354653,14.1395349 13.9069767,11.4680234 13.9069767,8.18604651 L13.9069767,0.372093023 C13.9069767,0.167151256 13.7412793,0 13.5348837,0 L12.0465116,0 C11.8401165,0 11.6744186,0.167151256 11.6744186,0.372093023 L11.6744186,8.18604651 C11.6744186,10.2383721 10.005814,11.9069767 7.95348837,11.9069767 C5.90116279,11.9069767 4.23255814,10.2383721 4.23255814,8.18604651 L4.23255814,0.372093023 C4.23255814,0.167151256 4.06540688,0 3.86046512,0 L2.37209302,0 Z M2.74418605,15.255814 C2.53924428,15.255814 2.37209302,15.4215118 2.37209302,15.627907 C2.37209302,15.8343025 2.53924428,16 2.74418605,16 L13.1627907,16 C13.3691862,16 13.5348837,15.8343025 13.5348837,15.627907 C13.5348837,15.4215118 13.3691862,15.255814 13.1627907,15.255814 L2.74418605,15.255814 Z"></path>
      </symbol>
    

      <symbol id="Speed" viewBox="0 0 16 16">
        <path d="M8,0 C3.58886957,0 0,3.58852174 0,8 C0,12.4114783 3.58886957,16 8,16 C12.4111304,16 16,12.4114783 16,8 C16,3.58852174 12.4111304,0 8,0 Z M8.64347826,8.8253913 C8.46782609,8.96104348 8.24765217,9.04347826 8,9.04347826 C7.40869565,9.04347826 6.95652174,8.59130435 6.95652174,8 C6.95652174,7.53008696 7.24417391,7.15234783 7.65773913,7.01530435 L7.65634783,7.01286957 L13.6761739,4.69286957 L8.64556522,8.82921739 L8.64347826,8.8253913 Z"></path>
      </symbol>
    

      <symbol id="Size" viewBox="0 0 16 16">
        <path d="M9.76159751,-0.00175779355 C9.31944522,0.0185529848 8.97884761,0.393523047 8.99915839,0.835675344 C9.01946917,1.27782764 9.39443923,1.61842525 9.83659153,1.59811447 L13.2738171,1.59811447 L1.59974917,13.2721824 L1.59974917,9.83495683 C1.60287412,9.61778656 1.51850566,9.40999076 1.36539308,9.25687818 C1.21228011,9.1037652 1.0044843,9.01939714 0.787314038,9.02252169 C0.34516174,9.02877119 -0.00637259251,9.39280453 -0.000123091481,9.83495683 L-0.00020514155,15.9970705 L6.16188492,15.9969648 C6.45092425,16.0016521 6.71809051,15.8501018 6.86339131,15.6001217 C7.01025479,15.351704 7.01025479,15.0423535 6.86339131,14.7939361 C6.71809051,14.5439561 6.45092425,14.3924054 6.16188492,14.3970926 L2.72465936,14.3970926 L14.3987273,2.72302465 L14.3987273,6.16025022 C14.3940401,6.44928954 14.5455908,6.71645581 14.7955708,6.86175661 C15.0439882,7.00862009 15.3533387,7.00862009 15.6017564,6.86175661 C15.8517365,6.71645581 16.0032868,6.44928954 15.9985995,6.16025022 L15.9985995,-0.00175779355 L9.83659153,-0.00175779355 C9.81159352,-0.00332006882 9.78659552,-0.00332006882 9.76159751,-0.00175779355 Z"></path>
      </symbol>
    

      <symbol id="Search" viewBox="0 0 16 16">
        <path d="M6.19501779,0 C2.77722429,0 0,2.77722429 0,6.19501779 C0,9.6128113 2.77722429,12.3900356 6.19501779,12.3900356 C7.54733114,12.3900356 8.79715302,11.9544486 9.81637011,11.2170819 L14.6106762,16 L15.6355872,14.975089 L10.8982206,10.2263345 C11.8291817,9.14163719 12.3900356,7.73380774 12.3900356,6.19501779 C12.3900356,2.77722429 9.6128113,0 6.19501779,0 Z M6.19501779,0.728825623 C9.21850534,0.728825623 11.66121,3.17153025 11.66121,6.19501779 C11.66121,9.21850534 9.21850534,11.66121 6.19501779,11.66121 C3.17153025,11.66121 0.728825623,9.21850534 0.728825623,6.19501779 C0.728825623,3.17153025 3.17153025,0.728825623 6.19501779,0.728825623 Z"></path>
      </symbol>
    

      <symbol id="Replace" viewBox="0 0 16 15">
        <path d="M7.99886527,0 C3.95082,0 0.665878652,3.28494135 0.665878652,7.33298662 C0.665878652,9.01060097 1.22369758,10.546228 2.15669356,11.780693 L0.430212728,11.2527233 C0.254036515,11.1987918 0.0674973441,11.2978907 0.0135658272,11.4740669 C-0.0403656896,11.6502431 0.0587332162,11.8367823 0.234909429,11.8907138 L3.21393518,12.8008271 L3.62797827,9.73586768 C3.64221833,9.64105603 3.61494666,9.5447034 3.5531287,9.47141924 C3.49131074,9.39813507 3.40093227,9.35501541 3.30507687,9.35307344 C3.13371994,9.34952931 2.98760059,9.47650385 2.96720214,9.64667923 L2.72697913,11.427845 C1.85434533,10.2962242 1.3325138,8.88618185 1.3325138,7.33298662 C1.3325138,3.64473101 4.31060966,0.666635147 7.99886527,0.666635147 L7.99886527,0 Z M8.702608,0.0253894329 L8.60821146,0.68421245 L8.93957613,0.733038274 C9.27056048,0.778369465 8.93930514,0.732944512 9.27028949,0.77860902 L9.36468603,0.119786003 L9.0333217,0.0709601783 L8.702608,0.0253894329 Z M10.0755901,0.291652877 L9.8575014,0.921180412 L10.1719395,1.0285972 C10.4865913,1.13592546 10.1723772,1.02835241 10.487029,1.13601399 L10.7051177,0.506486453 L10.0755901,0.291652877 Z M11.3684976,0.811810583 L11.036482,1.38730421 L11.3242287,1.554614 C11.6155483,1.72227274 11.3242287,1.55491608 11.6158816,1.72257482 L11.9478972,1.14317512 L11.3684976,0.811810583 Z M12.7837954,1.86514618 L12.3697523,4.93010557 C12.3537803,5.04816136 12.4020169,5.16576823 12.4962854,5.23860873 C12.5905538,5.31144924 12.7165262,5.3284524 12.8267327,5.28321097 C12.9369393,5.23796953 13.0146298,5.13735972 13.0305284,5.01929402 L13.2707513,3.23812823 C14.1433851,4.36974906 14.6652167,5.77979139 14.6652167,7.33298662 C14.6652167,11.0212422 11.6871209,13.9993381 7.99886527,13.9993381 L7.99886527,14.6659732 C12.0469105,14.6659732 15.3318519,11.3810319 15.3318519,7.33298662 C15.3318519,5.65537227 14.7740329,4.11974521 13.841037,2.88528025 L15.5675178,3.41324995 C15.743694,3.4671815 15.9302332,3.36808263 15.9841647,3.19190642 C16.0380963,3.0157302 15.9389974,2.829191 15.7628212,2.77525945 L12.7837954,1.86514618 Z M4.35906337,12.929076 L4.02509482,13.5065227 L4.60319249,13.8404916 L4.937812,13.2662998 L4.35906337,12.929076 Z M5.48596342,13.5201941 L5.26527052,14.1484197 L5.89349615,14.3658571 L6.11418872,13.7376318 L5.80040155,13.6289129 L5.48596342,13.5201941 Z M6.70074965,13.8821563 L6.60439987,14.5409792 L6.93511357,14.5911071 L7.26582693,14.6373286 L7.36282768,13.9791567 L7.03146301,13.9290288 L6.70074965,13.8821563 Z"></path>
      </symbol>
    

      <symbol id="Photo" viewBox="0 0 16 16">
        <path d="M8,0 C6.811198,0 5.811198,0.786458333 5.46875,1.86458333 C5.08203133,1.66145833 4.65625,1.5625 4.22916667,1.5625 C3.545573,1.5625 2.86328133,1.82421867 2.34375,2.34375 C1.5,3.1875 1.33723967,4.46223967 1.86458333,5.46875 C0.786458333,5.811198 0,6.811198 0,8 C0,9.19010433 0.785156333,10.200521 1.86458333,10.5416667 C1.342448,11.546875 1.50260433,12.8151043 2.34375,13.65625 C3.184896,14.497396 4.453125,14.657552 5.45833333,14.1354167 C5.79947933,15.2148437 6.809896,16 8,16 C9.19010433,16 10.200521,15.2148437 10.5416667,14.1354167 C11.546875,14.657552 12.8151043,14.497396 13.65625,13.65625 C14.5,12.8125 14.6627603,11.5377603 14.1354167,10.53125 C15.2135417,10.188802 16,9.188802 16,8 C16,6.811198 15.2135417,5.811198 14.1354167,5.46875 C14.1367187,5.466146 14.1341147,5.46093767 14.1354167,5.45833333 C14.657552,4.453125 14.497396,3.184896 13.65625,2.34375 C13.1367187,1.82421867 12.454427,1.5625 11.7708333,1.5625 C11.3463543,1.5625 10.9257813,1.66406267 10.5416667,1.86458333 C10.5416667,1.86328133 10.53125,1.86588533 10.53125,1.86458333 C10.188802,0.786458333 9.188802,0 8,0 Z M8,0.666666667 C8.97395833,0.666666667 9.77604167,1.35286467 9.95833333,2.27083333 C9.93359367,2.294271 9.91015633,2.31901033 9.88541667,2.34375 L8.46875,3.76041667 C8.279948,3.94921867 8.11979167,4.16145833 8,4.38541667 C7.88020833,4.16145833 7.720052,3.94921867 7.53125,3.76041667 L6.11458333,2.34375 C6.08984367,2.31901033 6.06640633,2.294271 6.04166667,2.27083333 C6.22395833,1.35286467 7.02604167,0.666666667 8,0.666666667 Z M4.22916667,2.22916667 C4.61197933,2.22916667 5,2.33333333 5.33333333,2.55208333 C5.33203133,2.58984367 5.33333333,2.62760433 5.33333333,2.66666667 L5.33333333,4.66666667 C5.33333333,4.94270833 5.38020833,5.20833333 5.45833333,5.45833333 C5.20833333,5.38020833 4.94270833,5.33333333 4.66666667,5.33333333 L2.66666667,5.33333333 C2.62760433,5.33333333 2.58984367,5.33203133 2.55208333,5.33333333 C2.03776033,4.55468767 2.126302,3.498698 2.8125,2.8125 C3.204427,2.420573 3.717448,2.22916667 4.22916667,2.22916667 Z M11.7708333,2.22916667 C12.282552,2.22916667 12.795573,2.420573 13.1875,2.8125 C13.873698,3.498698 13.9622397,4.55468767 13.4479167,5.33333333 C13.4101563,5.33203133 13.372396,5.33333333 13.3333333,5.33333333 L11.3333333,5.33333333 C11.0572917,5.33333333 10.7916667,5.38020833 10.5416667,5.45833333 C10.6197917,5.20833333 10.6666667,4.94270833 10.6666667,4.66666667 L10.6666667,2.66666667 C10.6666667,2.62760433 10.6679687,2.58984367 10.6666667,2.55208333 C11,2.33333333 11.388021,2.22916667 11.7708333,2.22916667 Z M6,3.16666667 L7.0625,4.22916667 C7.69921867,4.86588533 7.81510433,5.81901033 7.41666667,6.57291667 C6.59635433,6.32421867 6,5.57031267 6,4.66666667 L6,3.16666667 Z M10,3.16666667 L10,4.66666667 C10,5.57031267 9.403646,6.32421867 8.58333333,6.57291667 C8.184896,5.81640633 8.30078133,4.86588533 8.9375,4.22916667 L10,3.16666667 Z M3.16666667,6 L4.66666667,6 C5.57031267,6 6.32421867,6.59635433 6.57291667,7.41666667 C5.81640633,7.81510433 4.86588533,7.69921867 4.22916667,7.0625 L3.16666667,6 Z M11.3333333,6 L12.8333333,6 L11.7708333,7.0625 C11.1341147,7.69921867 10.1809897,7.81510433 9.42708333,7.41666667 C9.67578133,6.59635433 10.4296877,6 11.3333333,6 Z M2.26041667,6.04166667 C2.264323,6.04036467 2.266927,6.04296867 2.27083333,6.04166667 C2.294271,6.06640633 2.31901033,6.08984367 2.34375,6.11458333 L3.76041667,7.53125 C3.94921867,7.720052 4.16145833,7.88020833 4.38541667,8 C4.16145833,8.12109367 3.94921867,8.279948 3.76041667,8.46875 L2.34375,9.88541667 C2.31901033,9.91015633 2.294271,9.93359367 2.27083333,9.95833333 C1.35286467,9.77604167 0.666666667,8.97395833 0.666666667,8 C0.666666667,7.029948 1.34765633,6.22786467 2.26041667,6.04166667 Z M13.7291667,6.04166667 C14.6471353,6.22395833 15.3333333,7.02604167 15.3333333,8 C15.3333333,8.97395833 14.6471353,9.77604167 13.7291667,9.95833333 C13.7057293,9.93359367 13.6809897,9.91015633 13.65625,9.88541667 L12.2395833,8.46875 C12.0507813,8.279948 11.8385417,8.12109367 11.6145833,8 C11.8385417,7.88020833 12.0507813,7.720052 12.2395833,7.53125 L13.65625,6.11458333 C13.6809897,6.08984367 13.7057293,6.06640633 13.7291667,6.04166667 Z M7.72916667,7.32291667 C7.81901033,7.33203133 7.907552,7.33333333 8,7.33333333 C8.092448,7.33333333 8.18098967,7.33203133 8.27083333,7.32291667 C8.33072933,7.39713533 8.39973967,7.46223967 8.46875,7.53125 C8.53776033,7.60026033 8.60286467,7.669271 8.67708333,7.72916667 C8.66796867,7.81901033 8.66666667,7.907552 8.66666667,8 C8.66666667,8.092448 8.66796867,8.18098967 8.67708333,8.27083333 C8.60286467,8.33072933 8.53776033,8.39973967 8.46875,8.46875 C8.39973967,8.53776033 8.33072933,8.60286467 8.27083333,8.67708333 C8.18098967,8.66796867 8.092448,8.66666667 8,8.66666667 C7.907552,8.66666667 7.81901033,8.66796867 7.72916667,8.67708333 C7.669271,8.60286467 7.60026033,8.53776033 7.53125,8.46875 C7.46223967,8.39973967 7.39713533,8.33072933 7.32291667,8.27083333 C7.33203133,8.18098967 7.33333333,8.092448 7.33333333,8 C7.33333333,7.907552 7.33203133,7.81901033 7.32291667,7.72916667 C7.39713533,7.669271 7.46223967,7.60026033 7.53125,7.53125 C7.60026033,7.46223967 7.669271,7.39713533 7.72916667,7.32291667 Z M5.64583333,8.35416667 C5.96484367,8.35416667 6.28515633,8.43098967 6.57291667,8.58333333 C6.32421867,9.403646 5.57031267,10 4.66666667,10 L3.16666667,10 L4.22916667,8.9375 C4.62109367,8.545573 5.13411467,8.35416667 5.64583333,8.35416667 Z M10.3541667,8.35416667 C10.8658853,8.35416667 11.3789063,8.545573 11.7708333,8.9375 L12.8333333,10 L11.3333333,10 C10.4296877,10 9.67578133,9.403646 9.42708333,8.58333333 C9.71875,8.43098967 10.0351563,8.35416667 10.3541667,8.35416667 Z M7.40625,9.42708333 C7.40885433,9.42578133 7.41406267,9.42838533 7.41666667,9.42708333 C7.81510433,10.1835937 7.69921867,11.1341147 7.0625,11.7708333 L6,12.8333333 L6,11.3333333 C6,10.4322917 6.591146,9.67968767 7.40625,9.42708333 Z M8.58333333,9.42708333 C9.403646,9.67578133 10,10.4296877 10,11.3333333 L10,12.8333333 L8.9375,11.7708333 C8.30078133,11.1341147 8.184896,10.1809897 8.58333333,9.42708333 Z M5.45833333,10.5416667 C5.38020833,10.7916667 5.33333333,11.0572917 5.33333333,11.3333333 L5.33333333,13.3333333 C5.33333333,13.372396 5.33203133,13.4101563 5.33333333,13.4479167 C4.55468767,13.9622397 3.498698,13.873698 2.8125,13.1875 C2.126302,12.501302 2.03776033,11.4453127 2.55208333,10.6666667 C2.58984367,10.6679687 2.62760433,10.6666667 2.66666667,10.6666667 L4.66666667,10.6666667 C4.94270833,10.6666667 5.20833333,10.6197917 5.45833333,10.5416667 Z M10.5416667,10.5416667 C10.7916667,10.6197917 11.0572917,10.6666667 11.3333333,10.6666667 L13.3333333,10.6666667 C13.372396,10.6666667 13.4101563,10.6679687 13.4479167,10.6666667 C13.9622397,11.4453127 13.873698,12.501302 13.1875,13.1875 C12.501302,13.873698 11.4453127,13.9622397 10.6666667,13.4479167 C10.6679687,13.4101563 10.6666667,13.372396 10.6666667,13.3333333 L10.6666667,11.3333333 C10.6666667,11.0572917 10.6197917,10.7916667 10.5416667,10.5416667 Z M8,11.6145833 C8.11979167,11.8385417 8.279948,12.0507813 8.46875,12.2395833 L9.88541667,13.65625 C9.91015633,13.6809897 9.93359367,13.7057293 9.95833333,13.7291667 C9.77604167,14.6471353 8.97395833,15.3333333 8,15.3333333 C7.02604167,15.3333333 6.22395833,14.6471353 6.04166667,13.7291667 C6.06640633,13.7057293 6.08984367,13.6809897 6.11458333,13.65625 L7.53125,12.2395833 C7.720052,12.0507813 7.88020833,11.8385417 8,11.6145833 Z"></path>
      </symbol>
    

      <symbol id="Launch" viewBox="0 0 16 16">
        <path d="M7.47963369,0.00215732912 C7.42089268,0.00965617138 7.36590117,0.0346524722 7.31965839,0.0721465236 C7.31965839,0.0721465236 4.96002269,1.88186712 4.96002269,4.4514704 C4.96002269,5.22885055 5.10999953,6.76861282 5.26997484,8.29087764 C5.30746921,8.64832262 5.32246689,8.79704942 5.35996094,9.14074643 L4.07016007,10.6705103 C4.02266757,10.730501 3.99767143,10.8042397 4.00017088,10.8804778 L4.00017088,12.1602803 C4.00017088,12.265264 4.05141289,12.3627492 4.13764981,12.4227399 C4.22263669,12.4814806 4.33261971,12.4964783 4.4301045,12.4602339 L5.68991,12.0103034 C5.77239743,12.2665138 5.99861242,12.4802309 6.29981584,12.4802309 L8.73943919,12.4802309 C9.04064261,12.4802309 9.26685792,12.2665138 9.34934503,12.0103034 L10.6091505,12.4602339 C10.7066356,12.4964783 10.8166187,12.4814806 10.9016055,12.4227399 C10.9878421,12.3627492 11.0390841,12.265264 11.0390841,12.1602803 L11.0390841,10.8804778 C11.0415839,10.8042397 11.0165878,10.730501 10.969095,10.6705103 L9.68929254,9.16074335 C9.88301271,7.39101657 10.0792323,5.36507943 10.0792323,4.4514704 C10.0792323,1.88186712 7.71959664,0.0721465236 7.71959664,0.0721465236 C7.65210722,0.0171550136 7.5658703,-0.00784112723 7.47963369,0.00215732912 Z M7.51962751,0.782036924 C7.84582707,1.0619937 9.43933113,2.48802346 9.43933113,4.4514704 C9.43933113,5.80751097 8.89941449,10.5930224 8.73943919,11.8103343 C8.73943919,11.8140838 8.73943919,11.8265817 8.73943919,11.8303312 C8.73943919,11.8315809 8.73568969,11.8403296 8.73943919,11.8403296 L6.29981584,11.8403296 C6.29981584,11.8353304 6.29981584,11.8153335 6.29981584,11.8103343 C6.23357615,11.1866805 6.05860316,9.72565613 5.89987759,8.22088845 C5.73990228,6.70362286 5.5999239,5.14511339 5.5999239,4.4514704 C5.5999239,2.48802346 7.19342796,1.0619937 7.51962751,0.782036924 Z M7.51962751,3.20166336 C6.81598607,3.20166336 6.2398251,3.77782433 6.2398251,4.48146577 C6.2398251,5.18510722 6.81598607,5.76126819 7.51962751,5.76126819 C8.22326896,5.76126819 8.79942993,5.18510722 8.79942993,4.48146577 C8.79942993,3.77782433 8.22326896,3.20166336 7.51962751,3.20166336 Z M7.51962751,3.84156457 C7.87707249,3.84156457 8.15952872,4.12402112 8.15952872,4.48146577 C8.15952872,4.83891075 7.87707249,5.12136698 7.51962751,5.12136698 C7.16218286,5.12136698 6.87972631,4.83891075 6.87972631,4.48146577 C6.87972631,4.12402112 7.16218286,3.84156457 7.51962751,3.84156457 Z M5.45994551,10.030609 C5.51368729,10.5030363 5.57492775,11.0379537 5.60992235,11.3504053 L4.64007209,11.7003513 L4.64007209,11.0104578 L5.45994551,10.030609 Z M9.58930798,10.050606 L10.3991829,11.0104578 L10.3991829,11.7003513 L9.43933113,11.3504053 C9.48432419,10.9842119 9.52806751,10.5917723 9.58930798,10.050606 Z M6.40979886,12.790183 C6.3960509,12.7926828 6.38230326,12.796432 6.36980503,12.8001815 C6.26607097,12.8214281 6.18108409,12.8926673 6.13984054,12.9901521 C6.04360548,13.2138677 5.9198745,13.483826 5.9198745,13.820024 C5.9198745,14.3911857 6.30106557,14.8736114 6.63976336,15.2598017 C6.97846114,15.645992 7.31965839,15.9296983 7.31965839,15.9296983 C7.43714041,16.0234339 7.60211494,16.0234339 7.71959664,15.9296983 C7.71959664,15.9296983 8.06079388,15.645992 8.39949167,15.2598017 C8.73818946,14.8736114 9.11938053,14.3911857 9.11938053,13.820024 C9.11938053,13.5113216 9.04314238,13.2001197 8.86941912,12.9401598 C8.76943456,12.7939325 8.57071516,12.7551884 8.42448781,12.855173 C8.27826047,12.9551575 8.23951637,13.1538769 8.33950094,13.3001043 C8.42198836,13.4238353 8.47947932,13.6175554 8.47947932,13.820024 C8.47947932,14.0487388 8.22076919,14.4974196 7.91956577,14.8398666 C7.71959664,15.0673316 7.63211031,15.1298218 7.51962751,15.2298063 C7.40714504,15.1298218 7.31965839,15.0673316 7.11968926,14.8398666 C6.81848584,14.4974196 6.55977571,14.0487388 6.55977571,13.820024 C6.55977571,13.6438013 6.6335144,13.4738275 6.72974946,13.250112 C6.78099147,13.1451282 6.77224306,13.0213972 6.70600305,12.9251622 C6.63851363,12.8301768 6.52603084,12.7776851 6.40979886,12.790183 Z"></path>
      </symbol>
    

      <symbol id="Italics" viewBox="0 0 16 16">
        <path d="M7.41864111,16 L5.39379301,16 C5.27513722,16 5.16264575,15.9460656 5.08867869,15.8536068 C5.01317075,15.7611479 4.98389202,15.6394104 5.00854771,15.5238367 L8.20454133,0.31436001 C8.24152486,0.130983239 8.40332771,0 8.58978625,0 L10.6146347,0 C10.7332901,0 10.8457816,0.053934414 10.9197487,0.14639324 C10.9952566,0.238852067 11.0245353,0.359048344 10.9998797,0.476162857 L7.80388642,15.6871809 C7.76536161,15.8690164 7.60509965,16 7.41864111,16 Z"></path>
      </symbol>
    

      <symbol id="Draft" viewBox="0 0 16 16">
        <path d="M15.5040126,0.495923826 C15.1738495,0.165761043 14.7404255,0 14.3070018,0 C13.8735778,0 13.4401538,0.165761043 13.1099907,0.495923826 C13.1099907,0.495923826 13.0855344,0.519021913 13.0542843,0.551630609 C13.0515671,0.554347826 13.0474909,0.555706435 13.0447733,0.558424 L0.800208096,12.8016306 C0.758088791,12.8451089 0.726838705,12.8980977 0.710534357,12.9578803 L0.0121646176,15.5625002 C-0.0204440781,15.6820654 0.0135235741,15.8097826 0.101838705,15.8980977 C0.168414705,15.9646741 0.256729835,16 0.347762531,16 C0.377654009,16 0.407545139,15.9959238 0.437436618,15.9877718 L3.0420561,15.2894021 C3.1018387,15.2730977 3.15482792,15.241848 3.19830618,15.1983697 L15.4415124,2.95652174 C15.4455886,2.95244557 15.4469472,2.94701078 15.4496648,2.94293496 C15.4809149,2.91168487 15.502654,2.88994574 15.502654,2.88994574 C16.1656975,2.22826087 16.1656975,1.15625009 15.5040126,0.495923826 Z M15.0121646,0.987771826 C15.4007517,1.37635861 15.4007517,2.00951096 15.0121646,2.39809774 C14.8966756,2.51222817 14.7988495,2.61141322 14.7146105,2.69565217 L13.3042843,1.28532626 C13.4646105,1.125 13.6018387,0.987771826 13.6018387,0.987771826 C13.7893385,0.798913043 14.0406975,0.695652174 14.3070018,0.695652174 C14.5733062,0.695652174 14.8233062,0.800271652 15.0121646,0.987771826 Z M1.25401262,13.6182066 L2.38172983,14.7459238 L0.839610531,15.1603263 L1.25401262,13.6182066 Z"></path>
      </symbol>
    

      <symbol id="Delete" viewBox="0 0 12 16">
        <path d="M4.8,0 C4.27375008,0 3.84,0.43375008 3.84,0.96 L3.84,1.6 L1.34,1.6 C1.3,1.59250016 1.26,1.59250016 1.22,1.6 L0.64,1.6 C0.63,1.6 0.62,1.6 0.61,1.6 C0.43375008,1.60875008 0.29624992,1.75875008 0.305,1.935 C0.31375008,2.11124992 0.46375008,2.24875008 0.64,2.24 L0.99,2.24 L2.14,15.2 C2.18,15.6475002 2.56124992,16 3.01,16 L9.15,16 C9.59875008,16 9.98,15.6475002 10.02,15.2 L11.17,2.24 L11.52,2.24 C11.635,2.24124992 11.7425002,2.18124992 11.8012499,2.08124992 C11.8587501,1.98124992 11.8587501,1.85875008 11.8012499,1.75875008 C11.7425002,1.65875008 11.635,1.59875008 11.52,1.6 L8.32,1.6 L8.32,0.96 C8.32,0.43375008 7.88624992,0 7.36,0 L4.8,0 Z M4.8,0.64 L7.36,0.64 C7.54,0.64 7.68,0.78 7.68,0.96 L7.68,1.6 L4.48,1.6 L4.48,0.96 C4.48,0.78 4.62,0.64 4.8,0.64 Z M1.63,2.24 L10.53,2.24 L9.38,15.15 C9.37,15.2612499 9.25124992,15.36 9.15,15.36 L3.01,15.36 C2.90875008,15.36 2.79,15.2612499 2.78,15.15 L1.63,2.24 Z M4.13,3.19 C4.11624992,3.19250016 4.10250016,3.19624992 4.09,3.2 C3.94124992,3.23375008 3.83624992,3.36750016 3.84,3.52 L3.84,14.08 C3.83875008,14.195 3.89875008,14.3025002 3.99875008,14.3612499 C4.09875008,14.4187501 4.22124992,14.4187501 4.32124992,14.3612499 C4.42124992,14.3025002 4.48124992,14.195 4.48,14.08 L4.48,3.52 C4.48375008,3.42750016 4.44624992,3.33875008 4.38,3.27624992 C4.31250016,3.21250016 4.22124992,3.18124992 4.13,3.19 Z M6.05,3.19 C6.03624992,3.19250016 6.02250016,3.19624992 6.01,3.2 C5.86124992,3.23375008 5.75624992,3.36750016 5.76,3.52 L5.76,14.08 C5.75875008,14.195 5.81875008,14.3025002 5.91875008,14.3612499 C6.01875008,14.4187501 6.14124992,14.4187501 6.24124992,14.3612499 C6.34124992,14.3025002 6.40124992,14.195 6.4,14.08 L6.4,3.52 C6.40375008,3.42750016 6.36624992,3.33875008 6.3,3.27624992 C6.23250016,3.21250016 6.14124992,3.18124992 6.05,3.19 Z M7.97,3.19 C7.95624992,3.19250016 7.94250016,3.19624992 7.93,3.2 C7.78124992,3.23375008 7.67624992,3.36750016 7.68,3.52 L7.68,14.08 C7.67875008,14.195 7.73875008,14.3025002 7.83875008,14.3612499 C7.93875008,14.4187501 8.06124992,14.4187501 8.16124992,14.3612499 C8.26124992,14.3025002 8.32124992,14.195 8.32,14.08 L8.32,3.52 C8.32375008,3.42750016 8.28624992,3.33875008 8.22,3.27624992 C8.15250016,3.21250016 8.06124992,3.18124992 7.97,3.19 Z"></path>
      </symbol>
    

      <symbol id="Collection" viewBox="0 0 16 15">
        <path d="M7.56311031,0 C3.63748531,-3.70074344e-16 1,1.45407716 1,2.81188966 C1,4.17032719 3.63748531,5.625 7.56311031,5.625 C11.4884228,5.625 14.125,4.17032719 14.125,2.81188966 C14.125,1.45407716 11.4884228,0 7.56311031,0 Z M1,4.25292969 L1,5.98449719 C1,7.32012219 3.63748531,8.75 7.56311031,8.75 C11.4884228,8.75 14.125,7.32012219 14.125,5.98449719 L14.125,4.25292969 C12.9775,5.42605469 10.5040478,6.25 7.56311031,6.25 C4.62154781,6.25 2.1478125,5.42574219 1,4.25292969 Z M1,7.47192375 L1,9.123535 C1,10.4588475 3.63748531,11.875 7.56311031,11.875 C11.4884228,11.875 14.125,10.4585353 14.125,9.123535 L14.125,7.47192375 C12.9775,8.64442375 10.5040478,9.375 7.56311031,9.375 C4.62154781,9.375 2.1478125,8.64442375 1,7.47192375 Z M1,10.6109619 L1,12.2344972 C1,13.5698097 3.63748531,15 7.56311031,15 C11.4884228,15 14.125,13.5698097 14.125,12.2344972 L14.125,10.6109619 C12.9775,11.7837744 10.5040478,12.5 7.56311031,12.5 C4.62154781,12.5 2.1478125,11.7837744 1,10.6109619 Z"></path>
      </symbol>
    

      <symbol id="Checkmark" viewBox="0 0 17 16">
        <path d="M15.9943577,0.623740584 C15.7159408,0.633567278 15.4604522,0.78096433 15.3130548,1.01679995 L7.42566347,13.0837225 L2.31589171,8.66835562 C2.09643377,8.44070863 1.76724624,8.35554577 1.46426308,8.45053532 C1.16291756,8.54388682 0.938546281,8.79937541 0.886138365,9.11054761 C0.83373045,9.42335704 0.959836892,9.73780454 1.21532548,9.92614559 L7.05880806,14.9835094 C7.24223577,15.1390955 7.48462237,15.2078807 7.72209564,15.1734881 C7.96120696,15.1374579 8.17247627,15.0015248 8.30349605,14.8000817 L16.7280685,1.93393847 C16.9082209,1.67026125 16.9229605,1.3296098 16.7673744,1.05119254 C16.6117883,0.774413341 16.3120809,0.609000962 15.9943577,0.623740584 Z"></path>
      </symbol>
    

      <symbol id="Bold" viewBox="0 0 15 17">
        <path d="M13.3580968,8.8261996 C12.9882259,8.28680468 12.4811946,7.86145311 11.8447084,7.55630939 C12.237696,7.27890619 12.5582508,6.95835138 12.8048314,6.59772741 C13.1962784,6.02288604 13.3950839,5.30317914 13.3950839,4.4586405 C13.3950839,3.69115812 13.262547,3.03155495 13.0036374,2.49678312 C12.7401042,1.95276472 12.3625277,1.51046063 11.8816955,1.18220027 C11.4147334,0.863186494 10.8522214,0.630476327 10.2064883,0.493315559 C9.58541327,0.360778671 8.89036404,0.292969 8.14291662,0.292969 L0.984372997,0.292969 C0.767073922,0.292969 0.589844,0.468657497 0.589844,0.687497997 L0.589844,15.89844 C0.589844,16.1157395 0.767073922,16.292969 0.984372997,16.292969 L8.35559261,16.292969 C9.06913499,16.292969 9.77343119,16.2020427 10.4484454,16.0232717 C11.1373302,15.8414183 11.7599462,15.5563096 12.3008826,15.1771917 C12.8541476,14.7872862 13.2995341,14.2787138 13.6262534,13.6653443 C13.9529728,13.0504338 14.1194147,12.3168564 14.1194147,11.4892703 C14.1194147,10.4613373 13.8620461,9.56594147 13.3580968,8.8261996 Z M4.3286225,3.28584112 L7.46173785,3.28584112 C7.75917562,3.28584112 8.04736683,3.31049918 8.32477003,3.35981531 C8.6006318,3.41067286 8.8456714,3.50005813 9.05988841,3.6264309 C9.272564,3.7543443 9.44208838,3.93311525 9.57000218,4.1596613 C9.69791558,4.38774838 9.76264319,4.67902164 9.76264319,5.03348148 C9.76264319,5.67305007 9.57000218,6.13384732 9.18626078,6.41741504 C8.80251979,6.70252418 8.312441,6.84430804 7.71602401,6.84430804 L4.3286225,6.84430804 L4.3286225,3.28584112 Z M10.1772068,12.2767873 C10.0431285,12.5326145 9.86127544,12.7345025 9.63472939,12.8839919 C9.40664231,13.0334817 9.1446506,13.1398195 8.8456714,13.2045467 C8.54823362,13.2677333 8.23538435,13.3000969 7.90866503,13.3000969 L4.3286225,13.3000969 L4.3286225,9.12363738 L7.97185121,9.12363738 C8.69772302,9.12363738 9.27872852,9.29162072 9.71949158,9.62450456 C10.1602542,9.95892944 10.3806358,10.5168179 10.3806358,11.2981703 C10.3790947,11.6942404 10.3112851,12.0209597 10.1772068,12.2767873 Z"></path>
      </symbol>
    

      <symbol id="Arrow-Down" viewBox="0 0 17 9">
        <path d="M4.87144169,-3.51804551 C4.71676063,-3.51804551 4.57844016,-3.42434477 4.51894744,-3.28156226 C4.46094195,-3.13729213 4.49515036,-2.97368736 4.60669929,-2.86511325 L11.9525624,4.4807499 L4.60669929,11.826613 C4.5070489,11.9218014 4.46689122,12.0645839 4.50258685,12.1969551 C4.53679526,12.3308139 4.6409077,12.434926 4.77476612,12.4691344 C4.90713732,12.50483 5.04991983,12.4646723 5.14510818,12.3650219 L12.7601758,4.74995434 C12.9089076,4.60122255 12.9089076,4.36027724 12.7601758,4.21154546 L5.14510818,-3.40352213 C5.07371692,-3.47788822 4.97555413,-3.51804551 4.87144169,-3.51804551 Z" transform="translate(8.680746, 4.481954) rotate(-270.000000) translate(-8.680746, -4.481954) "></path>
      </symbol>
    

      <symbol id="Add" viewBox="0 0 16 16">
        <path d="M8.75,7.25 L16,7.25 L16,8.75 L8.75,8.75 L8.75,16 L7.25,16 L7.25,8.75 L0,8.75 L0,7.25 L7.25,7.25 L7.25,0 L8.75,0 L8.75,7.25 Z"></path>
      </symbol>
    
</svg>
